<svg width="160" height="24" viewBox="0 0 160 24" fill="none" xmlns="http://www.w3.org/2000/svg">
<path d="M153.25 5V1.82H152.02V1.5H154.85V1.82H153.62V5H153.25ZM155.441 5V1.5H155.746L157.346 4.23H157.186L158.771 1.5H159.076V5H158.721V2.055H158.806L157.346 4.555H157.171L155.701 2.055H155.796V5H155.441Z" fill="black"/>
<path d="M6.26 19.24C5.14 19.24 4.06667 19.0933 3.04 18.8C2.01333 18.4933 1.18667 18.1 0.56 17.62L1.66 15.18C2.26 15.6067 2.96667 15.96 3.78 16.24C4.60667 16.5067 5.44 16.64 6.28 16.64C6.92 16.64 7.43333 16.58 7.82 16.46C8.22 16.3267 8.51333 16.1467 8.7 15.92C8.88667 15.6933 8.98 15.4333 8.98 15.14C8.98 14.7667 8.83333 14.4733 8.54 14.26C8.24667 14.0333 7.86 13.8533 7.38 13.72C6.9 13.5733 6.36667 13.44 5.78 13.32C5.20667 13.1867 4.62667 13.0267 4.04 12.84C3.46667 12.6533 2.94 12.4133 2.46 12.12C1.98 11.8267 1.58667 11.44 1.28 10.96C0.986667 10.48 0.84 9.86667 0.84 9.12C0.84 8.32 1.05333 7.59333 1.48 6.94C1.92 6.27333 2.57333 5.74667 3.44 5.36C4.32 4.96 5.42 4.76 6.74 4.76C7.62 4.76 8.48667 4.86667 9.34 5.08C10.1933 5.28 10.9467 5.58667 11.6 6L10.6 8.46C9.94667 8.08667 9.29333 7.81333 8.64 7.64C7.98667 7.45333 7.34667 7.36 6.72 7.36C6.09333 7.36 5.58 7.43333 5.18 7.58C4.78 7.72667 4.49333 7.92 4.32 8.16C4.14667 8.38667 4.06 8.65333 4.06 8.96C4.06 9.32 4.20667 9.61333 4.5 9.84C4.79333 10.0533 5.18 10.2267 5.66 10.36C6.14 10.4933 6.66667 10.6267 7.24 10.76C7.82667 10.8933 8.40667 11.0467 8.98 11.22C9.56667 11.3933 10.1 11.6267 10.58 11.92C11.06 12.2133 11.4467 12.6 11.74 13.08C12.0467 13.56 12.2 14.1667 12.2 14.9C12.2 15.6867 11.98 16.4067 11.54 17.06C11.1 17.7133 10.44 18.24 9.56 18.64C8.69333 19.04 7.59333 19.24 6.26 19.24ZM19.5339 19.16C18.3072 19.16 17.2272 18.92 16.2939 18.44C15.3739 17.96 14.6606 17.3067 14.1539 16.48C13.6472 15.64 13.3939 14.6867 13.3939 13.62C13.3939 12.54 13.6406 11.5867 14.1339 10.76C14.6406 9.92 15.3272 9.26667 16.1939 8.8C17.0606 8.32 18.0406 8.08 19.1339 8.08C20.1872 8.08 21.1339 8.30667 21.9739 8.76C22.8272 9.2 23.5006 9.84 23.9939 10.68C24.4872 11.5067 24.7339 12.5 24.7339 13.66C24.7339 13.78 24.7272 13.92 24.7139 14.08C24.7006 14.2267 24.6872 14.3667 24.6739 14.5H15.9339V12.68H23.0339L21.8339 13.22C21.8339 12.66 21.7206 12.1733 21.4939 11.76C21.2672 11.3467 20.9539 11.0267 20.5539 10.8C20.1539 10.56 19.6872 10.44 19.1539 10.44C18.6206 10.44 18.1472 10.56 17.7339 10.8C17.3339 11.0267 17.0206 11.3533 16.7939 11.78C16.5672 12.1933 16.4539 12.6867 16.4539 13.26V13.74C16.4539 14.3267 16.5806 14.8467 16.8339 15.3C17.1006 15.74 17.4672 16.08 17.9339 16.32C18.4139 16.5467 18.9739 16.66 19.6139 16.66C20.1872 16.66 20.6872 16.5733 21.1139 16.4C21.5539 16.2267 21.9539 15.9667 22.3139 15.62L23.9739 17.42C23.4806 17.98 22.8606 18.4133 22.1139 18.72C21.3672 19.0133 20.5072 19.16 19.5339 19.16ZM33.1181 19V16.9L32.9181 16.44V12.68C32.9181 12.0133 32.7115 11.4933 32.2981 11.12C31.8981 10.7467 31.2781 10.56 30.4381 10.56C29.8648 10.56 29.2981 10.6533 28.7381 10.84C28.1915 11.0133 27.7248 11.2533 27.3381 11.56L26.2181 9.38C26.8048 8.96667 27.5115 8.64667 28.3381 8.42C29.1648 8.19333 30.0048 8.08 30.8581 8.08C32.4981 8.08 33.7715 8.46667 34.6781 9.24C35.5848 10.0133 36.0381 11.22 36.0381 12.86V19H33.1181ZM29.8381 19.16C28.9981 19.16 28.2781 19.02 27.6781 18.74C27.0781 18.4467 26.6181 18.0533 26.2981 17.56C25.9781 17.0667 25.8181 16.5133 25.8181 15.9C25.8181 15.26 25.9715 14.7 26.2781 14.22C26.5981 13.74 27.0981 13.3667 27.7781 13.1C28.4581 12.82 29.3448 12.68 30.4381 12.68H33.2981V14.5H30.7781C30.0448 14.5 29.5381 14.62 29.2581 14.86C28.9915 15.1 28.8581 15.4 28.8581 15.76C28.8581 16.16 29.0115 16.48 29.3181 16.72C29.6381 16.9467 30.0715 17.06 30.6181 17.06C31.1381 17.06 31.6048 16.94 32.0181 16.7C32.4315 16.4467 32.7315 16.08 32.9181 15.6L33.3981 17.04C33.1715 17.7333 32.7581 18.26 32.1581 18.62C31.5581 18.98 30.7848 19.16 29.8381 19.16ZM38.8619 19V8.24H41.8419V11.28L41.4219 10.4C41.7419 9.64 42.2552 9.06667 42.9619 8.68C43.6685 8.28 44.5285 8.08 45.5419 8.08V10.96C45.4085 10.9467 45.2885 10.94 45.1819 10.94C45.0752 10.9267 44.9619 10.92 44.8419 10.92C43.9885 10.92 43.2952 11.1667 42.7619 11.66C42.2419 12.14 41.9819 12.8933 41.9819 13.92V19H38.8619ZM52.5189 19.16C51.3589 19.16 50.3256 18.9267 49.4189 18.46C48.5122 17.98 47.7989 17.32 47.2789 16.48C46.7722 15.64 46.5189 14.6867 46.5189 13.62C46.5189 12.54 46.7722 11.5867 47.2789 10.76C47.7989 9.92 48.5122 9.26667 49.4189 8.8C50.3256 8.32 51.3589 8.08 52.5189 8.08C53.6522 8.08 54.6389 8.32 55.4789 8.8C56.3189 9.26667 56.9389 9.94 57.3389 10.82L54.9189 12.12C54.6389 11.6133 54.2856 11.24 53.8589 11C53.4456 10.76 52.9922 10.64 52.4989 10.64C51.9656 10.64 51.4856 10.76 51.0589 11C50.6322 11.24 50.2922 11.58 50.0389 12.02C49.7989 12.46 49.6789 12.9933 49.6789 13.62C49.6789 14.2467 49.7989 14.78 50.0389 15.22C50.2922 15.66 50.6322 16 51.0589 16.24C51.4856 16.48 51.9656 16.6 52.4989 16.6C52.9922 16.6 53.4456 16.4867 53.8589 16.26C54.2856 16.02 54.6389 15.64 54.9189 15.12L57.3389 16.44C56.9389 17.3067 56.3189 17.98 55.4789 18.46C54.6389 18.9267 53.6522 19.16 52.5189 19.16ZM65.6167 8.08C66.4701 8.08 67.2301 8.25333 67.8967 8.6C68.5767 8.93333 69.1101 9.45333 69.4967 10.16C69.8834 10.8533 70.0767 11.7467 70.0767 12.84V19H66.9567V13.32C66.9567 12.4533 66.7634 11.8133 66.3767 11.4C66.0034 10.9867 65.4701 10.78 64.7767 10.78C64.2834 10.78 63.8367 10.8867 63.4367 11.1C63.0501 11.3 62.7434 11.6133 62.5167 12.04C62.3034 12.4667 62.1967 13.0133 62.1967 13.68V19H59.0767V4.16H62.1967V11.22L61.4967 10.32C61.8834 9.6 62.4367 9.04667 63.1567 8.66C63.8767 8.27333 64.6967 8.08 65.6167 8.08ZM72.9048 19V8.24H76.0248V19H72.9048ZM74.4648 6.74C73.8915 6.74 73.4248 6.57333 73.0648 6.24C72.7048 5.90667 72.5248 5.49333 72.5248 5C72.5248 4.50667 72.7048 4.09333 73.0648 3.76C73.4248 3.42667 73.8915 3.26 74.4648 3.26C75.0382 3.26 75.5048 3.42 75.8648 3.74C76.2248 4.04667 76.4048 4.44667 76.4048 4.94C76.4048 5.46 76.2248 5.89333 75.8648 6.24C75.5182 6.57333 75.0515 6.74 74.4648 6.74ZM85.4605 8.08C86.3138 8.08 87.0738 8.25333 87.7405 8.6C88.4205 8.93333 88.9538 9.45333 89.3405 10.16C89.7271 10.8533 89.9205 11.7467 89.9205 12.84V19H86.8005V13.32C86.8005 12.4533 86.6071 11.8133 86.2205 11.4C85.8471 10.9867 85.3138 10.78 84.6205 10.78C84.1271 10.78 83.6805 10.8867 83.2805 11.1C82.8938 11.3 82.5871 11.6133 82.3605 12.04C82.1471 12.4667 82.0405 13.0133 82.0405 13.68V19H78.9205V8.24H81.9005V11.22L81.3405 10.32C81.7271 9.6 82.2805 9.04667 83.0005 8.66C83.7205 8.27333 84.5405 8.08 85.4605 8.08ZM97.8867 23.04C96.8734 23.04 95.8934 22.9133 94.9467 22.66C94.0134 22.42 93.2334 22.0533 92.6067 21.56L93.8467 19.32C94.3001 19.6933 94.8734 19.9867 95.5667 20.2C96.2734 20.4267 96.9667 20.54 97.6467 20.54C98.7534 20.54 99.5534 20.2933 100.047 19.8C100.553 19.3067 100.807 18.5733 100.807 17.6V15.98L101.007 13.28L100.967 10.56V8.24H103.927V17.2C103.927 19.2 103.407 20.6733 102.367 21.62C101.327 22.5667 99.8334 23.04 97.8867 23.04ZM97.4067 18.48C96.4067 18.48 95.5001 18.2667 94.6867 17.84C93.8867 17.4 93.2401 16.7933 92.7467 16.02C92.2667 15.2333 92.0267 14.32 92.0267 13.28C92.0267 12.2267 92.2667 11.3133 92.7467 10.54C93.2401 9.75333 93.8867 9.14667 94.6867 8.72C95.5001 8.29333 96.4067 8.08 97.4067 8.08C98.3134 8.08 99.1134 8.26667 99.8067 8.64C100.5 9 101.04 9.56667 101.427 10.34C101.813 11.1 102.007 12.08 102.007 13.28C102.007 14.4667 101.813 15.4467 101.427 16.22C101.04 16.98 100.5 17.5467 99.8067 17.92C99.1134 18.2933 98.3134 18.48 97.4067 18.48ZM98.0267 15.92C98.5734 15.92 99.0601 15.8133 99.4867 15.6C99.9134 15.3733 100.247 15.06 100.487 14.66C100.727 14.26 100.847 13.8 100.847 13.28C100.847 12.7467 100.727 12.2867 100.487 11.9C100.247 11.5 99.9134 11.1933 99.4867 10.98C99.0601 10.7533 98.5734 10.64 98.0267 10.64C97.4801 10.64 96.9934 10.7533 96.5667 10.98C96.1401 11.1933 95.8001 11.5 95.5467 11.9C95.3067 12.2867 95.1867 12.7467 95.1867 13.28C95.1867 13.8 95.3067 14.26 95.5467 14.66C95.8001 15.06 96.1401 15.3733 96.5667 15.6C96.9934 15.8133 97.4801 15.92 98.0267 15.92ZM109.73 19V13.28L110.47 15.24L104.31 5H107.75L112.47 12.86H110.49L115.23 5H118.41L112.25 15.24L112.97 13.28V19H109.73ZM124.837 19V16.9L124.637 16.44V12.68C124.637 12.0133 124.43 11.4933 124.017 11.12C123.617 10.7467 122.997 10.56 122.157 10.56C121.584 10.56 121.017 10.6533 120.457 10.84C119.91 11.0133 119.444 11.2533 119.057 11.56L117.937 9.38C118.524 8.96667 119.23 8.64667 120.057 8.42C120.884 8.19333 121.724 8.08 122.577 8.08C124.217 8.08 125.49 8.46667 126.397 9.24C127.304 10.0133 127.757 11.22 127.757 12.86V19H124.837ZM121.557 19.16C120.717 19.16 119.997 19.02 119.397 18.74C118.797 18.4467 118.337 18.0533 118.017 17.56C117.697 17.0667 117.537 16.5133 117.537 15.9C117.537 15.26 117.69 14.7 117.997 14.22C118.317 13.74 118.817 13.3667 119.497 13.1C120.177 12.82 121.064 12.68 122.157 12.68H125.017V14.5H122.497C121.764 14.5 121.257 14.62 120.977 14.86C120.71 15.1 120.577 15.4 120.577 15.76C120.577 16.16 120.73 16.48 121.037 16.72C121.357 16.9467 121.79 17.06 122.337 17.06C122.857 17.06 123.324 16.94 123.737 16.7C124.15 16.4467 124.45 16.08 124.637 15.6L125.117 17.04C124.89 17.7333 124.477 18.26 123.877 18.62C123.277 18.98 122.504 19.16 121.557 19.16ZM130.581 19V8.24H133.561V11.28L133.141 10.4C133.461 9.64 133.974 9.06667 134.681 8.68C135.387 8.28 136.247 8.08 137.261 8.08V10.96C137.127 10.9467 137.007 10.94 136.901 10.94C136.794 10.9267 136.681 10.92 136.561 10.92C135.707 10.92 135.014 11.1667 134.481 11.66C133.961 12.14 133.701 12.8933 133.701 13.92V19H130.581ZM143.658 19.16C142.644 19.16 141.731 18.9333 140.918 18.48C140.104 18.0133 139.458 17.3667 138.978 16.54C138.511 15.7133 138.278 14.74 138.278 13.62C138.278 12.4867 138.511 11.5067 138.978 10.68C139.458 9.85333 140.104 9.21333 140.918 8.76C141.731 8.30667 142.644 8.08 143.658 8.08C144.564 8.08 145.358 8.28 146.038 8.68C146.718 9.08 147.244 9.68667 147.618 10.5C147.991 11.3133 148.178 12.3533 148.178 13.62C148.178 14.8733 147.998 15.9133 147.638 16.74C147.278 17.5533 146.758 18.16 146.078 18.56C145.411 18.96 144.604 19.16 143.658 19.16ZM144.198 16.6C144.704 16.6 145.164 16.48 145.578 16.24C145.991 16 146.318 15.66 146.558 15.22C146.811 14.7667 146.938 14.2333 146.938 13.62C146.938 12.9933 146.811 12.46 146.558 12.02C146.318 11.58 145.991 11.24 145.578 11C145.164 10.76 144.704 10.64 144.198 10.64C143.678 10.64 143.211 10.76 142.798 11C142.384 11.24 142.051 11.58 141.798 12.02C141.558 12.46 141.438 12.9933 141.438 13.62C141.438 14.2333 141.558 14.7667 141.798 15.22C142.051 15.66 142.384 16 142.798 16.24C143.211 16.48 143.678 16.6 144.198 16.6ZM147.018 19V16.8L147.078 13.6L146.878 10.42V4.16H149.998V19H147.018Z" fill="url(#paint0_linear_287_27305)"/>
<defs>
<linearGradient id="paint0_linear_287_27305" x1="0" y1="11.9008" x2="152" y2="11.9008" gradientUnits="userSpaceOnUse">
<stop stop-color="#0D70AE"/>
<stop offset="0.317708" stop-color="#5B50A1"/>
<stop offset="0.661458" stop-color="#B1336E"/>
<stop offset="1" stop-color="#C43C5C"/>
</linearGradient>
</defs>
</svg>
